<svg width="98" height="98" viewBox="0 0 98 98" fill="none" xmlns="http://www.w3.org/2000/svg">
<rect x="0.5" y="0.5" width="96.8582" height="96.8582" rx="48.4291" fill="#F4F4F4" stroke="#F4F4F4"/>
<path d="M40.3017 26.4577L33 57.5299L39.389 53.9583L33.5159 78.4033L48.913 44.355H43.7939L45.4209 38.3628C45.4209 38.3628 46.9719 34.5605 48.04 33.6008C49.1081 32.641 49.8382 32.0531 51.2544 31.815C53.0004 31.5214 54.3659 31.9309 55.6195 33.6008C56.7448 35.0995 56.8875 36.4886 56.8894 38.3628C56.8913 40.2523 56.7033 41.521 56.1354 43.3231C55.5676 45.1253 54.5878 46.3788 53.3179 47.609C52.048 48.8391 49.7464 49.3154 49.7464 49.3154L47.2067 54.9901C47.2067 54.9901 50.3981 55.3304 51.8496 55.207C53.8514 55.0368 55.7386 54.3351 56.5719 53.9583C58.5238 53.0759 59.6166 52.0507 60.8577 50.6831C62.0989 49.3154 63.5463 46.8665 64.3896 43.72C65.1616 40.8393 65.5059 38.4743 64.9451 35.5452C64.4622 33.023 64.0635 31.4044 62.326 29.5134C60.6782 27.72 60.2456 27.0433 57.8815 26.4579C55.7454 25.9289 53.3451 25.771 51.2544 26.4577C49.2895 27.1032 46.9289 29.5134 46.9289 29.5134L47.5241 26.4577H40.3017Z" fill="#5235FF"/>
</svg>
