<svg width="43" height="47" viewBox="0 0 43 47" fill="none" xmlns="http://www.w3.org/2000/svg">
<path d="M0.00645415 1.50725C0.000547321 1.26125 0.344109 1.17033 0.481055 1.37478C0.948476 2.07258 1.72222 3.03529 2.63222 3.41413C3.05424 3.58983 3.71607 3.91376 4.49025 3.99703C4.9442 4.04586 5.30828 3.94113 5.72894 3.74722C6.27087 3.49741 6.85188 2.93545 7.58698 2.49815C8.50994 1.94909 9.14025 1.52784 9.98694 1.1658C10.9494 0.754247 12.276 0.446879 13.2914 0.251372C13.5705 0.19763 13.6983 0.579396 13.4515 0.720337C12.7732 1.10762 11.9708 1.60292 11.3805 2.08179C10.3018 2.95681 9.66247 3.5932 8.74825 4.66321C7.65878 5.93832 7.14011 6.81783 6.50766 8.41043C6.05248 9.55664 5.71224 10.2453 5.73348 11.4915C5.75627 12.8281 6.12327 13.5783 6.73992 14.7391C7.35656 15.8998 7.51881 16.0214 9.98694 18.2838C12.4551 20.5462 14.399 22.0774 14.399 22.0774C14.399 22.0774 16.8514 24.1488 18.8172 25.7573C19.8325 26.5882 21.3371 27.7066 22.4063 28.4884C23.141 29.0256 24.1475 28.9129 24.693 28.1842C25.3384 27.3221 26.2567 25.9935 27.3286 24.1488C29.2734 20.8018 30.3243 19.0354 31.8672 15.6693C32.0114 15.3548 32.4648 15.3876 32.5507 15.7227C32.8732 16.9809 33.3933 19.1913 33.5221 20.8179C33.699 23.0537 33.6749 24.3574 33.2943 26.5636C32.9498 28.5612 32.36 30.7762 31.9125 32.3238C31.5649 33.5259 31.9441 34.8315 32.9097 35.6275L41.7427 42.909C42.5444 43.5698 42.4567 44.8134 41.54 45.3022C40.2248 46.0032 38.4958 46.812 37.3847 46.8949C34.7219 47.0935 32.6879 46.9979 30.5802 46.7154C26.7033 46.1957 21.268 44.0837 19.1981 43.2377C18.6513 43.0142 18.0445 42.9988 17.4864 43.1926C16.1492 43.657 13.5364 44.5209 11.6173 44.8834C9.06568 45.3653 5.48571 45.3867 3.4237 45.3494C3.0401 45.3425 2.94617 44.8172 3.29776 44.6637C4.38499 44.1888 5.83927 43.5157 6.89475 42.8849C8.19163 42.1097 9.84328 40.8262 10.8102 40.0484C11.2317 39.7093 11.2278 39.0698 10.8179 38.7167C9.77462 37.8179 7.95691 36.1683 6.89475 34.7242C5.36609 32.6459 4.66072 31.3428 3.71607 28.8952C3.02317 27.0999 2.60663 25.5808 2.4045 23.6491C2.20091 21.7035 2.18541 21.0129 2.4045 19.0692C2.56406 17.6536 2.70964 16.9874 3.48382 15.0722C3.62069 14.7336 3.99306 14.0729 4.33542 13.5733C4.67777 13.0736 5.16062 12.3531 5.03672 11.4082C4.87504 10.1753 3.8182 9.70185 3.10126 8.99333C1.8589 7.76555 1.17228 6.93134 0.546464 5.24611C0.137452 4.1447 0.0307566 2.51937 0.00645415 1.50725Z" fill="white"/>
</svg>
