<svg width="50" height="12" viewBox="0 0 50 12" fill="none" xmlns="http://www.w3.org/2000/svg">
<path d="M6.70266 11L2.47345 3.7333V11H0.075436V0.463288H3.09838L7.3276 7.72999V0.463288H9.72561V11H6.70266ZM13.9246 0.463288V2.3817H11.5266V0.463288H13.9246ZM13.9392 3.18103V11H11.5266V3.18103H13.9392ZM19.043 8.68919L20.6271 3.18103H23.0978L20.3074 11H17.6478L14.7992 3.18103H17.3862L19.043 8.68919ZM28.2726 5.81158C28.2726 5.36589 28.1612 5.04615 27.9383 4.85237C27.7252 4.65859 27.3958 4.56171 26.9501 4.56171C26.5528 4.56171 26.2282 4.66344 25.9763 4.86691C25.7341 5.06069 25.5936 5.34166 25.5549 5.70984H23.3167C23.3749 4.94442 23.7479 4.29042 24.4358 3.74784C25.1334 3.20526 26.0393 2.93397 27.1535 2.93397C28.3162 2.93397 29.1931 3.19557 29.7841 3.71877C30.3751 4.23228 30.6609 5.06553 30.6416 6.21851L30.6125 7.91892C30.5931 9.34319 30.6512 10.3702 30.7869 11H28.4325L28.4034 10.0553C27.8705 10.8111 26.9937 11.1889 25.7729 11.1889C25.0074 11.1889 24.3631 10.9806 23.8399 10.564C23.3264 10.1474 23.0697 9.59026 23.0697 8.89266C23.0697 8.42759 23.1908 8.0255 23.433 7.68639C23.6849 7.34727 24.0531 7.07598 24.5375 6.87252C25.022 6.65936 25.5646 6.49465 26.1653 6.37838C26.766 6.26211 27.4684 6.17491 28.2726 6.11678V5.81158ZM25.5403 8.71826C25.5403 8.97017 25.6421 9.17364 25.8455 9.32866C26.0587 9.48368 26.3251 9.56119 26.6449 9.56119C27.7688 9.56119 28.3307 8.94595 28.3307 7.71545V7.52652C27.3812 7.61372 26.6788 7.73967 26.2234 7.90439C25.768 8.05941 25.5403 8.3307 25.5403 8.71826ZM36.9735 5.47731C36.7119 5.44824 36.4939 5.43371 36.3195 5.43371C35.7284 5.43371 35.2876 5.55967 34.9969 5.81158C34.7062 6.06349 34.5609 6.48496 34.5609 7.07598V11H32.1629V3.18103H34.4737V4.66344C34.8613 3.67517 35.5734 3.16165 36.6101 3.1229C36.7748 3.1229 36.8959 3.12774 36.9735 3.13743V5.47731ZM42.7067 5.81158C42.7067 5.36589 42.5952 5.04615 42.3724 4.85237C42.1592 4.65859 41.8298 4.56171 41.3841 4.56171C40.9869 4.56171 40.6623 4.66344 40.4104 4.86691C40.1682 5.06069 40.0277 5.34166 39.9889 5.70984H37.7508C37.8089 4.94442 38.1819 4.29042 38.8698 3.74784C39.5674 3.20526 40.4734 2.93397 41.5876 2.93397C42.7503 2.93397 43.6271 3.19557 44.2181 3.71877C44.8092 4.23228 45.095 5.06553 45.0756 6.21851L45.0465 7.91892C45.0272 9.34319 45.0853 10.3702 45.2209 11H42.8665L42.8375 10.0553C42.3046 10.8111 41.4277 11.1889 40.2069 11.1889C39.4415 11.1889 38.7972 10.9806 38.274 10.564C37.7605 10.1474 37.5037 9.59026 37.5037 8.89266C37.5037 8.42759 37.6248 8.0255 37.867 7.68639C38.1189 7.34727 38.4871 7.07598 38.9716 6.87252C39.456 6.65936 39.9986 6.49465 40.5993 6.37838C41.2 6.26211 41.9025 6.17491 42.7067 6.11678V5.81158ZM39.9744 8.71826C39.9744 8.97017 40.0761 9.17364 40.2796 9.32866C40.4927 9.48368 40.7592 9.56119 41.0789 9.56119C42.2028 9.56119 42.7648 8.94595 42.7648 7.71545V7.52652C41.8153 7.61372 41.1128 7.73967 40.6574 7.90439C40.2021 8.05941 39.9744 8.3307 39.9744 8.71826ZM46.4797 11V8.41306H49.1829V11H46.4797Z" fill="black"/>
</svg>
