<svg width="81" height="23" viewBox="0 0 81 23" fill="none" xmlns="http://www.w3.org/2000/svg">
<rect x="32.7578" y="18.707" width="2.17808" height="1.71954" fill="black"/>
<rect x="32.7578" y="20.4263" width="2.17808" height="1.77686" fill="black"/>
<rect x="13.0388" y="13.6147" width="2.18087" height="7.56403" fill="black"/>
<rect width="2.17808" height="1.71954" transform="matrix(-1 0 0 1 31.5547 18.707)" fill="black"/>
<rect x="13.0388" y="20.4333" width="2.18087" height="1.68396" fill="black"/>
<rect x="32.7578" y="16.9873" width="2.17808" height="1.71954" fill="black"/>
<rect x="13.0388" y="16.987" width="2.17808" height="1.71954" fill="black"/>
<rect width="2.17808" height="1.71954" transform="matrix(-1 0 0 1 31.5547 16.9873)" fill="black"/>
<rect x="32.7578" y="15.21" width="2.17808" height="1.77686" fill="black"/>
<rect x="13.0388" y="15.2102" width="2.17808" height="1.77686" fill="black"/>
<rect width="2.18087" height="6.76345" transform="matrix(-1 0 0 1 31.5625 13.6699)" fill="black"/>
<rect x="32.75" y="13.5039" width="2.18087" height="8.64066" fill="black"/>
<rect width="2.17808" height="1.71954" transform="matrix(-1 0 0 1 31.5547 13.5039)" fill="black"/>
<rect x="34.5938" y="15.21" width="2.57931" height="1.83417" fill="black"/>
<rect width="4.69301" height="1.71157" transform="matrix(-1 0 0 1 29.3828 13.5039)" fill="black"/>
<rect width="2.12076" height="1.71954" transform="matrix(-1 0 0 1 25.1328 13.5039)" fill="black"/>
<rect x="37.1094" y="13.5039" width="3.94765" height="1.71157" fill="black"/>
<rect x="37.1641" y="13.5039" width="4.30653" height="1.71157" fill="black"/>
<rect x="13.0391" y="13.5039" width="6.54261" height="1.71157" fill="black"/>
<rect width="2.12076" height="1.71954" transform="matrix(-1 0 0 1 27.2539 13.5039)" fill="black"/>
<rect x="39.2927" y="13.9185" width="2.18087" height="3.06426" fill="black"/>
<rect x="19.582" y="15.2159" width="2.18087" height="3.56117" fill="black"/>
<rect x="19.5742" y="16.9871" width="2.17808" height="1.77686" fill="black"/>
<rect width="2.12566" height="4.30653" transform="matrix(-1 0 0 1 25.1289 16.9825)" fill="black"/>
<rect width="2.12566" height="1.73917" transform="matrix(-1 0 0 1 25.1289 18.694)" fill="black"/>
<rect x="17.3945" y="16.9873" width="2.17808" height="1.77686" fill="black"/>
<rect width="7.50881" height="1.71157" transform="matrix(-1 0 0 1 31.5625 16.9825)" fill="black"/>
<rect x="13.7812" y="16.9824" width="7.97812" height="1.79439" fill="black"/>
<rect width="4.38934" height="1.71157" transform="matrix(-1 0 0 1 29.3828 16.9825)" fill="black"/>
<rect x="13.0388" y="20.5439" width="6.54261" height="1.60114" fill="black"/>
<rect width="2.12076" height="1.71954" transform="matrix(-1 0 0 1 27.2539 20.4263)" fill="black"/>
<rect x="19.582" y="20.5439" width="2.18087" height="1.60114" fill="black"/>
<rect width="2.12076" height="1.71954" transform="matrix(-1 0 0 1 25.1328 20.4263)" fill="black"/>
<rect width="6.37697" height="1.71157" transform="matrix(-1 0 0 1 29.3828 20.4336)" fill="black"/>
<path d="M55.0481 10.5726V22.0664H52.3371V17.3579H47.6128V22.0664H44.9018V10.5726H47.6128V14.964H52.3371V10.5726H55.0481ZM59.1773 10.5726V12.6652H56.5615V10.5726H59.1773ZM59.1932 13.5372V22.0664H56.5615V13.5372H59.1932ZM64.2851 19.5457L66.0131 13.5372H68.7082L65.6643 22.0664H62.7631L59.6558 13.5372H62.4777L64.2851 19.5457ZM77.2812 19.3871C76.9218 20.3384 76.3511 21.0571 75.569 21.5432C74.7974 22.0294 73.9519 22.2725 73.0324 22.2725C71.6267 22.2725 70.4958 21.8709 69.6397 21.0676C68.7836 20.2538 68.3556 19.1493 68.3556 17.7542C68.3556 16.4225 68.7942 15.3445 69.6714 14.5201C70.5592 13.6957 71.6426 13.2835 72.9214 13.2835C74.3271 13.2835 75.4316 13.7697 76.2348 14.742C77.0381 15.7038 77.3974 16.9457 77.3129 18.4676H70.9873C71.0296 19.0384 71.2357 19.477 71.6056 19.7835C71.9861 20.09 72.4352 20.2432 72.9531 20.2432C73.8938 20.2432 74.5332 19.9579 74.8714 19.3871H77.2812ZM71.019 16.8823H74.7129C74.7023 16.375 74.5279 15.9839 74.1897 15.7091C73.8621 15.4238 73.4393 15.2811 72.9214 15.2811C72.4247 15.2811 71.9966 15.4185 71.6373 15.6933C71.2885 15.9575 71.0824 16.3538 71.019 16.8823ZM77.8118 22.0664V19.2445H80.7605V22.0664H77.8118Z" fill="#F1B729"/>
<rect x="0.534912" y="10.7989" width="5.71443" height="2.18087" fill="black"/>
<rect x="4.81274" y="12.9796" width="2.7882" height="6.81867" fill="black"/>
<rect x="4.82031" y="15.2974" width="2.7749" height="2.24992" fill="black"/>
<rect x="6.25" y="19.7983" width="5.604" height="2.3189" fill="black"/>
<rect x="4.82031" y="17.5474" width="2.7749" height="2.24992" fill="black"/>
<rect x="9.00781" y="19.7983" width="2.84341" height="2.3189" fill="black"/>
<rect x="34.9141" y="7.0575" width="2.19319" height="1.95141" fill="black"/>
<path d="M33.8534 5.63261C34.1574 6.15912 35.2287 6.65343 35.804 6.8981C35.9861 6.97554 36.196 6.86349 36.2245 6.66768C36.3156 6.04192 36.4269 4.85382 36.1208 4.32352C35.7218 3.63254 34.8833 3.36981 34.2478 3.7367C33.6123 4.10359 33.4544 4.94163 33.8534 5.63261Z" fill="#F1B729"/>
<path d="M34.0808 2.2724L34.2726 2.58843L33.9285 3.21389L33.2074 3.20343L33.0156 2.8874L33.3477 2.20796L34.0808 2.2724Z" fill="#F1B729"/>
<path d="M33.6308 4.02573C33.519 5.02946 32.6852 5.98041 32.1667 6.27982C31.0211 6.9412 29.6045 6.23298 29.3859 5.65477C29.1674 5.07656 29.4911 4.88971 30.6366 4.22834C31.7821 3.56697 33.5851 3.34775 33.6308 4.02573Z" fill="#F1B729"/>
<path d="M34.8675 3.37156C35.8148 3.80018 37.076 3.55984 37.601 3.25675C38.7607 2.58721 38.8394 0.956455 38.435 0.458212C38.0307 -0.0400305 37.703 0.14916 36.5433 0.81871C35.3836 1.48826 34.2881 2.97436 34.8675 3.37156Z" fill="#F1B729"/>
<rect width="2.516" height="11.3487" transform="matrix(-1 0 0 1 11.8555 10.7725)" fill="black"/>
<rect width="2.54276" height="11.4826" transform="matrix(-1 0 0 1 3.07422 10.7992)" fill="black"/>
</svg>
